<?xml version="1.0" encoding="UTF-8" standalone="no"?>
<!-- Created with Inkscape (http://www.inkscape.org/) -->

<svg
   xmlns:dc="http://purl.org/dc/elements/1.1/"
   xmlns:cc="http://creativecommons.org/ns#"
   xmlns:rdf="http://www.w3.org/1999/02/22-rdf-syntax-ns#"
   xmlns:svg="http://www.w3.org/2000/svg"
   xmlns="http://www.w3.org/2000/svg"
   xmlns:sodipodi="http://sodipodi.sourceforge.net/DTD/sodipodi-0.dtd"
   xmlns:inkscape="http://www.inkscape.org/namespaces/inkscape"
   width="45"
   height="15"
   id="svg6815"
   version="1.1"
   inkscape:version="0.48.0 r9654"
   sodipodi:docname="ball.svg"
   inkscape:export-filename="/Users/joe/Documents/Flash/fuckthisjam/Assets/graphics/ball.png"
   inkscape:export-xdpi="90"
   inkscape:export-ydpi="90">
  <defs
     id="defs6817" />
  <sodipodi:namedview
     id="base"
     pagecolor="#ffffff"
     bordercolor="#666666"
     borderopacity="1.0"
     inkscape:pageopacity="0.0"
     inkscape:pageshadow="2"
     inkscape:zoom="8.3924492"
     inkscape:cx="22.994707"
     inkscape:cy="7.5946884"
     inkscape:document-units="px"
     inkscape:current-layer="layer1"
     showgrid="true"
     inkscape:snap-global="false"
     inkscape:window-width="1280"
     inkscape:window-height="671"
     inkscape:window-x="0"
     inkscape:window-y="0"
     inkscape:window-maximized="0">
    <inkscape:grid
       type="xygrid"
       id="grid6823"
       empspacing="5"
       visible="true"
       enabled="true"
       snapvisiblegridlinesonly="true"
       spacingx="15px"
       spacingy="15px" />
  </sodipodi:namedview>
  <metadata
     id="metadata6820">
    <rdf:RDF>
      <cc:Work
         rdf:about="">
        <dc:format>image/svg+xml</dc:format>
        <dc:type
           rdf:resource="http://purl.org/dc/dcmitype/StillImage" />
        <dc:title></dc:title>
      </cc:Work>
    </rdf:RDF>
  </metadata>
  <g
     inkscape:label="Layer 1"
     inkscape:groupmode="layer"
     id="layer1"
     transform="translate(0,-1037.3622)">
    <g
       id="g6964"
       transform="translate(-22.710095,45.60922)">
      <path
         sodipodi:type="arc"
         style="fill:#ffffff;fill-opacity:1;fill-rule:nonzero;stroke:#000000"
         id="path6957"
         sodipodi:cx="7.5"
         sodipodi:cy="7.5"
         sodipodi:rx="7.5"
         sodipodi:ry="7.5"
         d="M 15,7.5 C 15,11.642136 11.642136,15 7.5,15 3.3578644,15 0,11.642136 0,7.5 0,3.3578644 3.3578644,0 7.5,0 11.642136,0 15,3.3578644 15,7.5 z"
         transform="matrix(0.9375,0,0,0.9375,23.178845,992.22173)" />
      <path
         inkscape:connector-curvature="0"
         id="path6952"
         d="m 29.960095,992.22207 -0.09375,0.25 -0.46875,1.28125 -0.9375,-1.3125 c -1.553602,0.39609 -2.898048,1.29472 -3.84375,2.53125 l 0.09375,0.125 0.875,1.375 1.40625,0 1.40625,0.0312 -0.46875,1.375 -0.53125,1.34375 0.9375,1.34378 0.90625,1.375 1.40625,0 1.34375,0.031 -0.46875,1.3438 -0.5,1.3437 -0.90625,-1.3437 -0.90625,-1.375 -1.40625,0.031 -1.40625,-0.062 -0.46875,1.375 -0.4375,1.1875 c 1.244784,1.1171 2.914584,1.8125 4.71875,1.8125 0.09517,0 0.187,-0.028 0.28125,-0.031 l 0.0625,-0.2188 0.5,-1.3437 0.90625,1.3437 c 1.555192,-0.4038 2.902804,-1.3167 3.84375,-2.5625 l -0.09375,-0.125 -0.90625,-1.375 -1.40625,0.031 -1.34375,-0.031 0.46875,-1.375 0.53125,-1.31248 0.90625,1.31248 0.90625,1.4063 1.40625,-0.031 0.40625,0 c 0.355801,-0.8412 0.5625,-1.7479 0.5625,-2.71873 0,-0.94654 -0.192121,-1.86327 -0.53125,-2.6875 l -1.28125,0 -1.40625,-0.0312 0.46875,-1.34375 0.4375,-1.15625 c -1.24866,-1.13489 -2.898476,-1.8125 -4.71875,-1.8125 -0.08426,0 -0.166458,-0.003 -0.25,0 z m -0.59375,1.625 0.9375,1.3125 0.875,1.375 -1.375,0 -1.375,-0.0312 0.4375,-1.375 0.5,-1.28125 z m -5.65625,2.65625 c -0.355801,0.84121 -0.53125,1.77919 -0.53125,2.75 0,0.96048 0.182638,1.85358 0.53125,2.68758 l 1.1875,-0.031 1.4375,0.031 0.46875,-1.375 0.5,-1.34383 -0.9375,-1.34375 -0.90625,-1.375 -1.40625,0 -0.34375,0 z m 7.5,0.0312 1.375,0 1.4375,0.0312 -0.46875,1.34375 -0.53125,1.3125 -0.90625,-1.3125 -0.90625,-1.375 z"
         style="fill:#000000;fill-opacity:1;fill-rule:nonzero;stroke:none" />
    </g>
    <g
       transform="matrix(0.90443616,0.42609016,-0.42609016,0.90443616,420.94875,128.2294)"
       id="g6968">
      <path
         transform="matrix(0.9375,0,0,0.9375,23.178845,992.22173)"
         d="M 15,7.5 C 15,11.642136 11.642136,15 7.5,15 3.3578644,15 0,11.642136 0,7.5 0,3.3578644 3.3578644,0 7.5,0 11.642136,0 15,3.3578644 15,7.5 z"
         sodipodi:ry="7.5"
         sodipodi:rx="7.5"
         sodipodi:cy="7.5"
         sodipodi:cx="7.5"
         id="path6970"
         style="fill:#ffffff;fill-opacity:1;fill-rule:nonzero;stroke:#000000"
         sodipodi:type="arc" />
      <path
         style="fill:#000000;fill-opacity:1;fill-rule:nonzero;stroke:none"
         d="m 29.960095,992.22207 -0.09375,0.25 -0.46875,1.28125 -0.9375,-1.3125 c -1.553602,0.39609 -2.898048,1.29472 -3.84375,2.53125 l 0.09375,0.125 0.875,1.375 1.40625,0 1.40625,0.0312 -0.46875,1.375 -0.53125,1.34375 0.9375,1.34378 0.90625,1.375 1.40625,0 1.34375,0.031 -0.46875,1.3438 -0.5,1.3437 -0.90625,-1.3437 -0.90625,-1.375 -1.40625,0.031 -1.40625,-0.062 -0.46875,1.375 -0.4375,1.1875 c 1.244784,1.1171 2.914584,1.8125 4.71875,1.8125 0.09517,0 0.187,-0.028 0.28125,-0.031 l 0.0625,-0.2188 0.5,-1.3437 0.90625,1.3437 c 1.555192,-0.4038 2.902804,-1.3167 3.84375,-2.5625 l -0.09375,-0.125 -0.90625,-1.375 -1.40625,0.031 -1.34375,-0.031 0.46875,-1.375 0.53125,-1.31248 0.90625,1.31248 0.90625,1.4063 1.40625,-0.031 0.40625,0 c 0.355801,-0.8412 0.5625,-1.7479 0.5625,-2.71873 0,-0.94654 -0.192121,-1.86327 -0.53125,-2.6875 l -1.28125,0 -1.40625,-0.0312 0.46875,-1.34375 0.4375,-1.15625 c -1.24866,-1.13489 -2.898476,-1.8125 -4.71875,-1.8125 -0.08426,0 -0.166458,-0.003 -0.25,0 z m -0.59375,1.625 0.9375,1.3125 0.875,1.375 -1.375,0 -1.375,-0.0312 0.4375,-1.375 0.5,-1.28125 z m -5.65625,2.65625 c -0.355801,0.84121 -0.53125,1.77919 -0.53125,2.75 0,0.96048 0.182638,1.85358 0.53125,2.68758 l 1.1875,-0.031 1.4375,0.031 0.46875,-1.375 0.5,-1.34383 -0.9375,-1.34375 -0.90625,-1.375 -1.40625,0 -0.34375,0 z m 7.5,0.0312 1.375,0 1.4375,0.0312 -0.46875,1.34375 -0.53125,1.3125 -0.90625,-1.3125 -0.90625,-1.375 z"
         id="path6972"
         inkscape:connector-curvature="0" />
    </g>
    <g
       id="g6974"
       transform="matrix(0.72134162,0.69257767,-0.69257767,0.72134162,707.7685,303.1366)">
      <path
         sodipodi:type="arc"
         style="fill:#ffffff;fill-opacity:1;fill-rule:nonzero;stroke:#000000"
         id="path6976"
         sodipodi:cx="7.5"
         sodipodi:cy="7.5"
         sodipodi:rx="7.5"
         sodipodi:ry="7.5"
         d="M 15,7.5 C 15,11.642136 11.642136,15 7.5,15 3.3578644,15 0,11.642136 0,7.5 0,3.3578644 3.3578644,0 7.5,0 11.642136,0 15,3.3578644 15,7.5 z"
         transform="matrix(0.9375,0,0,0.9375,23.178845,992.22173)" />
      <path
         inkscape:connector-curvature="0"
         id="path6978"
         d="m 29.960095,992.22207 -0.09375,0.25 -0.46875,1.28125 -0.9375,-1.3125 c -1.553602,0.39609 -2.898048,1.29472 -3.84375,2.53125 l 0.09375,0.125 0.875,1.375 1.40625,0 1.40625,0.0312 -0.46875,1.375 -0.53125,1.34375 0.9375,1.34378 0.90625,1.375 1.40625,0 1.34375,0.031 -0.46875,1.3438 -0.5,1.3437 -0.90625,-1.3437 -0.90625,-1.375 -1.40625,0.031 -1.40625,-0.062 -0.46875,1.375 -0.4375,1.1875 c 1.244784,1.1171 2.914584,1.8125 4.71875,1.8125 0.09517,0 0.187,-0.028 0.28125,-0.031 l 0.0625,-0.2188 0.5,-1.3437 0.90625,1.3437 c 1.555192,-0.4038 2.902804,-1.3167 3.84375,-2.5625 l -0.09375,-0.125 -0.90625,-1.375 -1.40625,0.031 -1.34375,-0.031 0.46875,-1.375 0.53125,-1.31248 0.90625,1.31248 0.90625,1.4063 1.40625,-0.031 0.40625,0 c 0.355801,-0.8412 0.5625,-1.7479 0.5625,-2.71873 0,-0.94654 -0.192121,-1.86327 -0.53125,-2.6875 l -1.28125,0 -1.40625,-0.0312 0.46875,-1.34375 0.4375,-1.15625 c -1.24866,-1.13489 -2.898476,-1.8125 -4.71875,-1.8125 -0.08426,0 -0.166458,-0.003 -0.25,0 z m -0.59375,1.625 0.9375,1.3125 0.875,1.375 -1.375,0 -1.375,-0.0312 0.4375,-1.375 0.5,-1.28125 z m -5.65625,2.65625 c -0.355801,0.84121 -0.53125,1.77919 -0.53125,2.75 0,0.96048 0.182638,1.85358 0.53125,2.68758 l 1.1875,-0.031 1.4375,0.031 0.46875,-1.375 0.5,-1.34383 -0.9375,-1.34375 -0.90625,-1.375 -1.40625,0 -0.34375,0 z m 7.5,0.0312 1.375,0 1.4375,0.0312 -0.46875,1.34375 -0.53125,1.3125 -0.90625,-1.3125 -0.90625,-1.375 z"
         style="fill:#000000;fill-opacity:1;fill-rule:nonzero;stroke:none" />
    </g>
  </g>
</svg>
